<?xml version="1.0" encoding="UTF-8"?>
<svg version="1.1" xmlns="http://www.w3.org/2000/svg" width="426" height="512">
<path d="M0 0 C-0.00222061 0.57642242 -0.00444122 1.15284485 -0.00672913 1.74673462 C-0.12483206 34.07381471 0.05348409 66.3765854 0.64428711 98.69775391 C0.6672435 99.95949432 0.69019989 101.22123474 0.71385193 102.52120972 C0.75698606 104.85760133 0.80142738 107.19396941 0.84754944 109.53030396 C1.05451992 120.47365356 1.15381356 131.38321111 0.5 142.3125 C0.45230469 143.16005859 0.40460938 144.00761719 0.35546875 144.88085938 C0.24022021 146.92075861 0.12060929 148.9604107 0 151 C-0.65742188 150.7834375 -1.31484375 150.566875 -1.9921875 150.34375 C-18.66532151 145.46380834 -35.93541462 146.87248317 -51.1875 155.1875 C-52.45302361 155.90805151 -53.71743867 156.63055529 -54.98046875 157.35546875 C-58 159 -58 159 -60 159 C-60.33 159.99 -60.66 160.98 -61 162 C-61.804375 162.309375 -62.60875 162.61875 -63.4375 162.9375 C-66.56465816 164.23412655 -66.61067612 165.04295657 -68 168 C-68.85457507 169.09951697 -69.73153955 170.18184058 -70.625 171.25 C-82.36891997 186.78321434 -85.50786801 203.84396969 -84 223 C-83.37787586 226.55110278 -82.39833669 229.68497768 -81 233 C-80.58234375 234.09441406 -80.58234375 234.09441406 -80.15625 235.2109375 C-75.66624732 246.24240961 -68.88861785 255.13752524 -60 263 C-59.34902344 263.57621094 -58.69804687 264.15242188 -58.02734375 264.74609375 C-44.23557731 275.30241598 -25.2407203 276.87043547 -8.69677734 274.8515625 C-5.67104075 274.44766348 -2.90275629 273.96758543 0 273 C8.22813903 281.22813903 3.28715465 322.32226416 3.35009766 333.65795898 C3.36690394 335.87128023 3.39450213 338.08454221 3.43212891 340.29760742 C3.48686397 343.56195915 3.50872937 346.82509563 3.5234375 350.08984375 C3.54610687 351.07009018 3.56877625 352.05033661 3.59213257 353.06028748 C3.57247716 359.44784244 2.43466435 364.20521242 -2 369 C-7.90535063 371.73395863 -12.92812622 371.11110328 -18.9375 368.9375 C-19.618125 368.628125 -20.29875 368.31875 -21 368 C-21 367.34 -21 366.68 -21 366 C-21.66 366 -22.32 366 -23 366 C-23 365.34 -23 364.68 -23 364 C-23.5775 363.71125 -24.155 363.4225 -24.75 363.125 C-26.83333333 362.08333333 -28.91666667 361.04166667 -31 360 C-31 359.34 -31 358.68 -31 358 C-31.5775 357.73316406 -32.155 357.46632813 -32.75 357.19140625 C-35.0709363 355.96243825 -36.95180067 354.57838696 -39 352.9375 C-41.71762012 350.77792208 -44.45014844 348.65533824 -47.25390625 346.609375 C-48.07665039 346.0062146 -48.07665039 346.0062146 -48.91601562 345.39086914 C-50.50507 344.22947397 -52.09816601 343.07361492 -53.69140625 341.91796875 C-54.45324219 341.28503906 -55.21507812 340.65210938 -56 340 C-56 339.34 -56 338.68 -56 338 C-56.680625 337.79375 -57.36125 337.5875 -58.0625 337.375 C-61.10674901 335.95003238 -63.26877397 334.15340153 -65.76171875 331.92578125 C-68.69544607 329.40164937 -71.74428895 327.04507161 -74.8125 324.6875 C-75.38806641 324.24277344 -75.96363281 323.79804688 -76.55664062 323.33984375 C-79.64200405 320.95869459 -79.64200405 320.95869459 -83 319 C-83 318.34 -83 317.68 -83 317 C-83.57363281 316.73574219 -84.14726562 316.47148437 -84.73828125 316.19921875 C-87.12222149 314.93519517 -89.0774052 313.49212009 -91.1875 311.8125 C-91.97511719 311.18988281 -92.76273438 310.56726563 -93.57421875 309.92578125 C-94.77498047 308.97251953 -94.77498047 308.97251953 -96 308 C-97.49861005 306.83154845 -98.99858525 305.66484542 -100.5 304.5 C-101.24378906 303.92121094 -101.98757813 303.34242188 -102.75390625 302.74609375 C-104.23976251 301.59100201 -105.72672554 300.43733243 -107.21484375 299.28515625 C-113.69323277 294.26412012 -120.10494886 289.16164752 -126.46875 283.99609375 C-131.82221048 279.66758377 -137.29196658 275.59478224 -142.9453125 271.6640625 C-143.96238281 270.84035156 -143.96238281 270.84035156 -145 270 C-145 269.34 -145 268.68 -145 268 C-145.86625 267.566875 -145.86625 267.566875 -146.75 267.125 C-148.83333333 266.08333333 -150.91666667 265.04166667 -153 264 C-153 263.34 -153 262.68 -153 262 C-153.57621094 261.731875 -154.15242187 261.46375 -154.74609375 261.1875 C-157.05432988 259.97137559 -158.997896 258.59121696 -161.0625 257 C-163.34345464 255.24878722 -165.60386777 253.59742149 -168 252 C-167.30355237 247.29897847 -164.42442507 244.36350261 -161.08203125 241.1640625 C-151.36463068 231.06379999 -148.00935606 216.54134779 -147.5625 202.875 C-148.33916166 185.3030299 -153.62724377 169.95500358 -166 157 C-166.90492188 156.29101562 -167.80984375 155.58203125 -168.7421875 154.8515625 C-169.85980469 153.93503906 -169.85980469 153.93503906 -171 153 C-171 152.34 -171 151.68 -171 151 C-171.66773438 150.7525 -172.33546875 150.505 -173.0234375 150.25 C-175.30741097 149.29085104 -177.42176502 148.28390855 -179.6015625 147.125 C-187.33635734 143.01712025 -194.15560891 139.75739261 -203 139 C-204.16015625 138.85820312 -205.3203125 138.71640625 -206.515625 138.5703125 C-224.56792283 136.75022486 -239.45700744 142.65990841 -254 153 C-257.02948203 155.64273964 -258.97198843 157.95758248 -261.1875 161.3125 C-261.785625 162.199375 -262.38375 163.08625 -263 164 C-263.66 164 -264.32 164 -265 164 C-265.28875 164.763125 -265.5775 165.52625 -265.875 166.3125 C-267 169 -267 169 -269 172 C-272.55776151 170.72094438 -275.24919038 169.24549369 -278.1875 166.875 C-279.34958984 165.946875 -279.34958984 165.946875 -280.53515625 165 C-281.75525391 164.01 -281.75525391 164.01 -283 163 C-284.70730811 161.62372721 -286.41564428 160.2487288 -288.125 158.875 C-288.95 158.20855469 -289.775 157.54210937 -290.625 156.85546875 C-292.74173394 155.20177036 -294.89615315 153.68388307 -297.125 152.1875 C-298.07375 151.465625 -299.0225 150.74375 -300 150 C-300 149.01 -300 148.02 -300 147 C-298.03814584 145.28859531 -296.03697617 143.62126675 -294 142 C-293.505 141.01 -293.505 141.01 -293 140 C-292.34 140 -291.68 140 -291 140 C-290.78730469 139.30519531 -290.57460938 138.61039063 -290.35546875 137.89453125 C-288.62717527 134.20385267 -286.10936189 131.58338095 -283.3125 128.6875 C-282.22322737 127.53454432 -281.13468253 126.3809006 -280.046875 125.2265625 C-279.52158203 124.67258789 -278.99628906 124.11861328 -278.45507812 123.54785156 C-274.64589403 119.49580002 -271.0250426 115.28787403 -267.5625 110.9375 C-264.88036099 107.86285285 -262.01438985 105.30344256 -258.91796875 102.66015625 C-255.50737951 99.70801689 -252.42628931 96.44611672 -249.3125 93.1875 C-247 91 -247 91 -245 91 C-244.77054688 90.43539062 -244.54109375 89.87078125 -244.3046875 89.2890625 C-242.65320633 86.39155363 -240.61675396 84.58578467 -238.125 82.375 C-236.82949219 81.21097656 -236.82949219 81.21097656 -235.5078125 80.0234375 C-233.35687247 78.28794383 -231.45393136 77.19945524 -229 76 C-228.67 75.34 -228.34 74.68 -228 74 C-227.34 74 -226.68 74 -226 74 C-226 73.34 -226 72.68 -226 72 C-223.12228205 70.08152136 -220.11373372 68.49920512 -217 67 C-217 66.34 -217 65.68 -217 65 C-215.36578856 63.94779719 -213.69238068 62.95583754 -212 62 C-210.5317036 60.99354956 -209.07371713 59.97193486 -207.625 58.9375 C-198.02736242 52.18041883 -188.40798315 45.45579762 -178 40 C-176.87078125 39.38511719 -175.7415625 38.77023438 -174.578125 38.13671875 C-160.36927915 30.41339873 -145.8313529 23.76240828 -130.41015625 18.80859375 C-128.57184035 18.19184919 -126.74867452 17.52975667 -124.93359375 16.84765625 C-116.41596617 13.65960224 -107.92927358 11.37299526 -99.05126953 9.44946289 C-97.70609461 9.15471557 -96.36314987 8.84955615 -95.02294922 8.53295898 C-87.66230064 6.81409301 -80.2172117 5.58713239 -72.75 4.4375 C-72.0227774 4.32539185 -71.29555481 4.21328369 -70.54629517 4.09777832 C-54.73123964 1.71727997 -39.01467261 1.26798512 -23.0461731 1.12110901 C-17.5483709 1.05357193 -12.10455303 0.70320782 -6.63012695 0.20996094 C-4.42598875 0.03400634 -2.2111502 0 0 0 Z M-110 47 C-110.99 47.66 -111.98 48.32 -113 49 C-113 49.66 -113 50.32 -113 51 C-113.60714844 51.24621094 -114.21429688 51.49242187 -114.83984375 51.74609375 C-120.34098257 54.93934069 -122.51864134 62.88796964 -124.421875 68.6640625 C-126.88913286 78.63311791 -125.34198079 89.21403362 -120.203125 98.20703125 C-113.99950639 107.45203431 -105.58348581 114.0975103 -94.5 116.5 C-83.82488723 117.86310622 -74.4773102 116.14317444 -65 111 C-62.06026719 108.64581624 -62.06026719 108.64581624 -60 106 C-59.195625 105.29875 -58.39125 104.5975 -57.5625 103.875 C-49.13441906 94.41910431 -47.05082154 84.38535543 -47.76025391 71.98974609 C-48.56541599 65.30739273 -51.50067285 58.05420396 -56 53 C-56.66 53 -57.32 53 -58 53 C-58.4021875 52.0409375 -58.4021875 52.0409375 -58.8125 51.0625 C-59.88667752 48.66868314 -59.88667752 48.66868314 -63 48 C-63 47.34 -63 46.68 -63 46 C-73.05484307 40.89788081 -73.05484307 40.89788081 -84 39 C-85.051875 38.896875 -86.10375 38.79375 -87.1875 38.6875 C-95.39253503 39.36004385 -103.50445291 41.87193651 -110 47 Z M-188.8984375 72.78515625 C-190.84251364 73.90896235 -192.80124816 74.94015084 -194.8125 75.9375 C-195.45058594 76.25589844 -196.08867187 76.57429688 -196.74609375 76.90234375 C-198.52122812 77.76683726 -200.3075217 78.60841804 -202.09765625 79.44140625 C-203.17917969 79.95574219 -204.26070312 80.47007812 -205.375 81 C-206.39335937 81.474375 -207.41171875 81.94875 -208.4609375 82.4375 C-211.14225184 84.08753959 -211.95644593 85.08307778 -213 88 C-213.66 88 -214.32 88 -215 88 C-215.92665705 95.342299 -215.92665705 95.342299 -213.65234375 102.09765625 C-210.01350084 105.35262123 -206.95204167 106.788022 -202 107 C-199.03941026 106.15813859 -196.33433124 104.88911715 -193.5625 103.5625 C-192.77697754 103.19995117 -191.99145508 102.83740234 -191.18212891 102.46386719 C-184.74257974 99.45259525 -178.45507419 96.17350602 -172.2265625 92.75 C-169.59640022 91.32347131 -166.96067988 90.01169827 -164.25 88.75 C-161.06634304 87.03572318 -159.56281351 86.21755722 -158 83 C-156.96310322 79.00054098 -156.74246274 76.7296889 -158.125 72.8125 C-160.74725377 68.87911935 -163.19254585 66.68855396 -167.625 65 C-175.32969918 65 -182.37076176 68.99080056 -188.8984375 72.78515625 Z M-123.375 146.75 C-124.83243811 151.99677719 -124.72165056 155.65623688 -122.1875 160.375 C-119.74228675 163.3092559 -117.91982305 164.7282341 -114.25 165.8125 C-110.01681426 166.05672225 -107.68999355 165.04999642 -104 163 C-100.51802394 159.60965489 -99.09762475 156.88123732 -99 152 C-100.57683368 146.91909148 -102.25905371 143.57660125 -107 141 C-113.74444508 139.7907372 -118.98817557 141.16676891 -123.375 146.75 Z " fill="#F44725" transform="translate(385,129)"/>
<path d="M0 0 C1.56137695 0.02803711 1.56137695 0.02803711 3.15429688 0.05664062 C14.74506225 0.47085606 25.2126147 4.67842593 33.38671875 13.0703125 C42.49030325 23.80614782 45.24921517 34.93647262 44.1875 48.8125 C41.83673358 58.8926886 36.41243175 68.41200766 28.1875 74.8125 C19.02695218 80.4148185 11.15454596 81.85977745 0.56640625 82.05859375 C-0.87012549 82.0901186 -2.30664872 82.12203347 -3.74316406 82.15429688 C-4.48022583 82.16968506 -5.2172876 82.18507324 -5.97668457 82.20092773 C-17.18475078 82.44286741 -28.27724278 82.7791829 -39.390625 84.35546875 C-42.71362642 84.79929428 -45.96464042 84.98483841 -49.3125 85.125 C-65.35376551 86.16350967 -81.39350407 90.44996621 -96.8125 94.8125 C-100.50267682 95.77564748 -104.19417106 96.73348537 -107.88671875 97.6875 C-117.49557683 100.34444599 -126.81646125 103.85829442 -136.0625 107.5625 C-137.15296631 107.99933105 -138.24343262 108.43616211 -139.36694336 108.88623047 C-147.43475148 112.1620434 -155.21739922 115.77720136 -162.91796875 119.83154297 C-164.96186459 120.88983852 -167.02391943 121.90357572 -169.09375 122.91015625 C-169.80974365 123.25997559 -170.5257373 123.60979492 -171.26342773 123.97021484 C-172.61518252 124.62944732 -173.96870792 125.28506902 -175.32446289 125.93603516 C-179.23055616 127.85971075 -182.70515598 130.04437694 -186.17651367 132.67578125 C-187.90658073 133.87786933 -189.64751258 134.7529666 -191.5625 135.625 C-196.10621193 137.80036787 -199.98326195 140.72723471 -204.01171875 143.73046875 C-206.64167517 145.68551306 -209.30644803 147.57146015 -212 149.4375 C-217.08038448 152.97519221 -222.06882296 156.62979782 -226.9140625 160.484375 C-228.8125 161.8125 -228.8125 161.8125 -230.8125 161.8125 C-231.06 162.410625 -231.3075 163.00875 -231.5625 163.625 C-232.99322525 166.12876919 -234.3816582 167.29322388 -236.8125 168.8125 C-237.4725 168.8125 -238.1325 168.8125 -238.8125 168.8125 C-239.06 169.410625 -239.3075 170.00875 -239.5625 170.625 C-240.99322525 173.12876919 -242.3816582 174.29322388 -244.8125 175.8125 C-245.4725 175.8125 -246.1325 175.8125 -246.8125 175.8125 C-247.080625 176.451875 -247.34875 177.09125 -247.625 177.75 C-248.8125 179.8125 -248.8125 179.8125 -251.8125 180.8125 C-251.8125 181.4725 -251.8125 182.1325 -251.8125 182.8125 C-253.421875 184.36328125 -253.421875 184.36328125 -255.5625 186.125 C-258.73011349 188.80012235 -261.24342965 191.55175686 -263.8125 194.8125 C-264.4725 194.8125 -265.1325 194.8125 -265.8125 194.8125 C-266.10125 195.410625 -266.39 196.00875 -266.6875 196.625 C-267.8125 198.8125 -267.8125 198.8125 -269.8125 201.8125 C-270.4725 201.8125 -271.1325 201.8125 -271.8125 201.8125 C-272.07933594 202.39773437 -272.34617187 202.98296875 -272.62109375 203.5859375 C-273.83187217 205.84870373 -275.1661699 207.53133571 -276.875 209.4375 C-278.47628483 211.2306258 -279.73578158 212.65906316 -280.8125 214.8125 C-281.4725 214.8125 -282.1325 214.8125 -282.8125 214.8125 C-282.8125 215.4725 -282.8125 216.1325 -282.8125 216.8125 C-283.4725 216.8125 -284.1325 216.8125 -284.8125 216.8125 C-285.07417969 217.5446875 -285.33585937 218.276875 -285.60546875 219.03125 C-288.3969969 225.46350903 -293.64828902 231.15211448 -298.8125 235.8125 C-299.36164063 236.31652344 -299.91078125 236.82054687 -300.4765625 237.33984375 C-308.16446934 243.80970774 -317.78597049 245.50294957 -327.66015625 245.23046875 C-339.60533079 243.64665998 -349.53386576 238.38622735 -357.1015625 229.140625 C-364.99161002 218.40439595 -366.16594106 208.7762544 -364.8125 195.8125 C-363.76793655 189.68587606 -361.74856511 184.63735401 -357.8125 179.8125 C-357.1525 179.8125 -356.4925 179.8125 -355.8125 179.8125 C-355.503125 179.02875 -355.19375 178.245 -354.875 177.4375 C-353.8125 174.8125 -353.8125 174.8125 -352.8125 172.8125 C-352.1525 172.8125 -351.4925 172.8125 -350.8125 172.8125 C-350.56886719 172.09707031 -350.32523437 171.38164062 -350.07421875 170.64453125 C-348.64583558 167.43840804 -346.88199334 165.18430706 -344.625 162.5 C-343.82191406 161.5409375 -343.01882813 160.581875 -342.19140625 159.59375 C-339.61057273 156.57642082 -337.01640042 153.57341462 -334.37890625 150.60546875 C-332.86888301 148.87703816 -331.4330365 147.10484011 -330 145.3125 C-329.278125 144.4875 -328.55625 143.6625 -327.8125 142.8125 C-327.1525 142.8125 -326.4925 142.8125 -325.8125 142.8125 C-325.48185547 141.99072266 -325.48185547 141.99072266 -325.14453125 141.15234375 C-323.39379871 138.07701006 -321.02302934 135.81091279 -318.5 133.375 C-318.02626953 132.91029297 -317.55253906 132.44558594 -317.06445312 131.96679688 C-315.64983614 130.57927242 -314.23118488 129.19586493 -312.8125 127.8125 C-311.93335938 126.92433594 -311.05421875 126.03617187 -310.1484375 125.12109375 C-307.8125 122.8125 -307.8125 122.8125 -304.75 120.3125 C-302.00761833 117.97855816 -300.04143564 115.61664483 -297.8125 112.8125 C-293.27195946 108.8125 -293.27195946 108.8125 -290.8125 108.8125 C-290.3175 107.3275 -290.3175 107.3275 -289.8125 105.8125 C-289.008125 105.503125 -288.20375 105.19375 -287.375 104.875 C-284.69253818 104.09149377 -284.69253818 104.09149377 -283.87109375 101.91796875 C-282.65118193 99.49164968 -281.52481842 98.60386939 -279.3125 97.0625 C-275.14246672 94.07739421 -271.17389214 90.89364025 -267.20703125 87.64453125 C-264.8125 85.8125 -264.8125 85.8125 -262.453125 84.40234375 C-259.03904963 82.34682796 -255.93038596 79.95821629 -252.75 77.5625 C-247.19956607 73.43129611 -241.56709615 69.75358069 -235.5234375 66.3671875 C-232.27042778 64.50162861 -229.20360259 62.42980203 -226.140625 60.26953125 C-223.51131318 58.62400557 -220.79795363 57.29116658 -218.015625 55.92553711 C-213.36582404 53.57641892 -208.86750681 50.93581776 -204.34765625 48.34765625 C-200.23239622 46.02712632 -196.35829188 44.18355875 -191.8125 42.8125 C-189.93721523 41.89130748 -188.06327869 40.96700131 -186.203125 40.015625 C-176.19182176 34.9772567 -166.03072905 30.81850311 -155.375 27.375 C-151.87829034 26.23624854 -148.5556532 24.84997229 -145.1875 23.375 C-138.90904443 20.72268901 -132.53886875 18.9917098 -125.93408203 17.34814453 C-122.83025297 16.56450806 -119.73976449 15.73236066 -116.6472168 14.90551758 C-105.31003009 11.88414326 -94.04444234 9.02734001 -82.41430664 7.3737793 C-78.74698478 6.80229059 -75.13012351 6.08609609 -71.4921875 5.3515625 C-62.7863949 3.66775305 -54.08191449 2.86948616 -45.25 2.1875 C-43.76361118 2.06584349 -42.2772826 1.9434487 -40.79101562 1.8203125 C-37.16004074 1.52244005 -33.52806945 1.24118223 -29.89505005 0.9694519 C-27.87424942 0.81715376 -25.85398189 0.65783271 -23.83374023 0.49829102 C-15.85358491 -0.09535032 -7.9962008 -0.29765038 0 0 Z " fill="#F44725" transform="translate(366.8125,24.1875)"/>
<path d="M0 0 C2.35139465 2.35308838 2.35139465 2.35308838 2.95266724 5.41564941 C2.94156418 6.61477966 2.93046112 7.81390991 2.91902161 9.04937744 C2.91975174 9.71320435 2.92048187 10.37703125 2.92123413 11.06097412 C2.91775998 13.24772848 2.87891427 15.43233287 2.8396759 17.61871338 C2.83034698 19.1375614 2.82323124 20.6564245 2.8182373 22.17529297 C2.79917319 26.16727452 2.75007901 30.15834219 2.69471741 34.14996338 C2.64351133 38.22535845 2.62072046 42.30090163 2.59553528 46.37652588 C2.54195833 54.36913214 2.45665426 62.36099648 2.35139465 70.35308838 C0.44917353 71.34555464 -1.45795771 72.32861366 -3.36711121 73.30767822 C-4.42860886 73.85612396 -5.49010651 74.4045697 -6.58377075 74.96963501 C-10.60107486 76.78302909 -13.86257017 77.20811959 -18.21110535 76.97808838 C-18.93362488 76.95697998 -19.65614441 76.93587158 -20.40055847 76.91412354 C-31.50538166 76.36680732 -41.60444803 71.76633038 -49.21110535 63.60308838 C-50.64860535 61.35308838 -50.64860535 61.35308838 -50.64860535 59.35308838 C-51.30860535 59.35308838 -51.96860535 59.35308838 -52.64860535 59.35308838 C-57.65540888 50.3753717 -61.32119275 39.74154409 -59.64860535 29.35308838 C-54.66919941 13.23202318 -48.42147142 5.56718585 -33.60173035 -2.26409912 C-23.68923361 -6.90566506 -9.24828161 -5.75061229 0 0 Z " fill="#F44725" transform="translate(383.6486053466797,304.64691162109375)"/>
<path d="M0 0 C7.13746073 6.98229854 13.31684261 18.44618984 13.6875 28.5234375 C13.30719732 40.62181646 10.44235528 50.40369405 1.8125 59.4375 C-0.38737869 61.47804168 -1.50878374 62.14876125 -4.4375 63.125 C-6.625 62.1875 -6.625 62.1875 -8.4375 61.125 C-8.4375 60.465 -8.4375 59.805 -8.4375 59.125 C-9.01371094 58.856875 -9.58992188 58.58875 -10.18359375 58.3125 C-12.49182988 57.09637559 -14.435396 55.71621696 -16.5 54.125 C-18.78095464 52.37378722 -21.04136777 50.72242149 -23.4375 49.125 C-23.4375 48.465 -23.4375 47.805 -23.4375 47.125 C-24.22125 46.815625 -25.005 46.50625 -25.8125 46.1875 C-28.4375 45.125 -28.4375 45.125 -30.4375 44.125 C-30.4375 43.465 -30.4375 42.805 -30.4375 42.125 C-31.015 41.83625 -31.5925 41.5475 -32.1875 41.25 C-34.27083333 40.20833333 -36.35416667 39.16666667 -38.4375 38.125 C-38.4375 37.465 -38.4375 36.805 -38.4375 36.125 C-39.3346875 35.691875 -39.3346875 35.691875 -40.25 35.25 C-42.4375 34.125 -42.4375 34.125 -45.4375 32.125 C-45.4375 31.465 -45.4375 30.805 -45.4375 30.125 C-46.03175781 30.01542969 -46.62601563 29.90585937 -47.23828125 29.79296875 C-49.68611301 29.04948877 -50.77604872 28.1768838 -52.625 26.4375 C-56.60240621 22.86648095 -60.94189636 19.99973974 -65.4375 17.125 C-63.72133992 9.87899076 -59.23524718 3.33988318 -53.4375 -1.25 C-52.4475 -1.78625 -51.4575 -2.3225 -50.4375 -2.875 C-49.85871094 -3.22046875 -49.27992188 -3.5659375 -48.68359375 -3.921875 C-32.695249 -13.45272414 -14.43207385 -11.5500929 0 0 Z " fill="#F44725" transform="translate(200.4375,300.875)"/>
<path d="M0 0 C3.59751215 2.96265707 4.87107239 5.6756909 5.9375 10.1875 C6.13455 13.93144996 5.54994855 16.31335939 4.125 19.75 C3.465 19.75 2.805 19.75 2.125 19.75 C1.795 20.74 1.465 21.73 1.125 22.75 C-3.28973264 25.58804241 -6.6701786 26.38918859 -11.875 25.75 C-15.4548086 24.37712495 -18.21253021 22.47657977 -20.8125 19.625 C-22.63743376 14.68694393 -23.10858134 9.52175067 -20.92578125 4.6171875 C-19.1155631 1.88758411 -17.35245652 0.06830435 -14.625 -1.75 C-9.49859201 -2.68207418 -4.76881398 -2.07339738 0 0 Z " fill="#F44725" transform="translate(306.875,195.25)"/>
</svg>
